<svg xmlns="http://www.w3.org/2000/svg" viewBox="-10 -10 231 180">
<defs>
<linearGradient id="o-left-in" gradientUnits="userSpaceOnUse" x1="56.1" y1="67.3" x2="9.4" y2="97.1"><stop offset="0" stop-color="#226a84"/><stop offset="0.333333" stop-color="#316e86"/><stop offset="0.666667" stop-color="#366983"/><stop offset="1" stop-color="#2c5a75"/></linearGradient>
<linearGradient id="o-left-out" gradientUnits="userSpaceOnUse" x1="53.5" y1="46.9" x2="-0.5" y2="111.3"><stop offset="0" stop-color="#4599a9"/><stop offset="0.333333" stop-color="#2b738e"/><stop offset="0.666667" stop-color="#1a5585"/><stop offset="1" stop-color="#0d264e"/></linearGradient>
<linearGradient id="o-top-in" gradientUnits="userSpaceOnUse" x1="92.9" y1="59.7" x2="86" y2="65"><stop offset="0" stop-color="#2f7586"/><stop offset="0.333333" stop-color="#27748c"/><stop offset="0.666667" stop-color="#217083"/><stop offset="1" stop-color="#2b8192"/></linearGradient>
<linearGradient id="o-top-out" gradientUnits="userSpaceOnUse" x1="99.1" y1="52.7" x2="88.4" y2="60.2"><stop offset="0" stop-color="#69a9a6"/><stop offset="0.333333" stop-color="#74a5a1"/><stop offset="0.666667" stop-color="#6da3a7"/><stop offset="1" stop-color="#5f9ea2"/></linearGradient>
<linearGradient id="o-bottom" gradientUnits="userSpaceOnUse" x1="103" y1="103.1" x2="88.2" y2="143.7"><stop offset="0" stop-color="#448783"/><stop offset="0.333333" stop-color="#3d6e7d"/><stop offset="0.666667" stop-color="#315c75"/><stop offset="1" stop-color="#1e4358"/></linearGradient>
<linearGradient id="lbar-l-up" gradientUnits="userSpaceOnUse" x1="64.7" y1="56.9" x2="46.8" y2="60"><stop offset="0" stop-color="#337f9d"/><stop offset="0.333333" stop-color="#397998"/><stop offset="0.666667" stop-color="#3c6d8a"/><stop offset="1" stop-color="#2d6482"/></linearGradient>
<linearGradient id="lbar-l-lo" gradientUnits="userSpaceOnUse" x1="52.2" y1="143.4" x2="61.8" y2="146"><stop offset="0" stop-color="#1d496d"/><stop offset="0.333333" stop-color="#0a274e"/><stop offset="0.666667" stop-color="#113263"/><stop offset="1" stop-color="#0e3061"/></linearGradient>
<linearGradient id="lbar-r-up" gradientUnits="userSpaceOnUse" x1="51.2" y1="45.2" x2="80.9" y2="64.1"><stop offset="0" stop-color="#60b8c3"/><stop offset="0.333333" stop-color="#5fb6c2"/><stop offset="0.666667" stop-color="#39a7ba"/><stop offset="1" stop-color="#22829e"/></linearGradient>
<linearGradient id="lbar-r-lo" gradientUnits="userSpaceOnUse" x1="61.2" y1="120.4" x2="71.9" y2="154.1"><stop offset="0" stop-color="#327785"/><stop offset="0.333333" stop-color="#285773"/><stop offset="0.666667" stop-color="#215176"/><stop offset="1" stop-color="#134268"/></linearGradient>
<linearGradient id="rbar-l-up" gradientUnits="userSpaceOnUse" x1="129.2" y1="44.3" x2="114.3" y2="47.6"><stop offset="0" stop-color="#3ca29f"/><stop offset="0.333333" stop-color="#3c9b9d"/><stop offset="0.666667" stop-color="#348c91"/><stop offset="1" stop-color="#28777c"/></linearGradient>
<linearGradient id="rbar-l-lo" gradientUnits="userSpaceOnUse" x1="108.1" y1="118.4" x2="136.7" y2="138.5"><stop offset="0" stop-color="#143f62"/><stop offset="0.333333" stop-color="#2c5e83"/><stop offset="0.666667" stop-color="#2e5d7d"/><stop offset="1" stop-color="#265779"/></linearGradient>
<linearGradient id="rbar-r-up" gradientUnits="userSpaceOnUse" x1="137.6" y1="39.6" x2="126.9" y2="40.5"><stop offset="0" stop-color="#74cda8"/><stop offset="0.333333" stop-color="#7bd1b5"/><stop offset="0.666667" stop-color="#80d6c1"/><stop offset="1" stop-color="#6dc4b4"/></linearGradient>
<linearGradient id="rbar-r-lo" gradientUnits="userSpaceOnUse" x1="131.2" y1="93.7" x2="133.9" y2="154.6"><stop offset="0" stop-color="#3f8e89"/><stop offset="0.333333" stop-color="#539c93"/><stop offset="0.666667" stop-color="#367e89"/><stop offset="1" stop-color="#255e79"/></linearGradient>
<linearGradient id="upper" gradientUnits="userSpaceOnUse" x1="45" y1="147" x2="144" y2="37"><stop offset="0" stop-color="#1e6282"/><stop offset="0.14" stop-color="#1e6282"/><stop offset="0.25" stop-color="#266486"/><stop offset="0.36" stop-color="#307f95"/><stop offset="0.46" stop-color="#37959b"/><stop offset="0.55" stop-color="#43a9a2"/><stop offset="0.65" stop-color="#4eb8a4"/><stop offset="0.75" stop-color="#64ccae"/><stop offset="0.87" stop-color="#79dab9"/><stop offset="1" stop-color="#88e3cc"/></linearGradient>
<linearGradient id="lower" gradientUnits="userSpaceOnUse" x1="45" y1="147" x2="144" y2="37"><stop offset="0" stop-color="#14466c"/><stop offset="0.14" stop-color="#11416e"/><stop offset="0.25" stop-color="#124876"/><stop offset="0.36" stop-color="#16507c"/><stop offset="0.46" stop-color="#17537e"/><stop offset="0.55" stop-color="#19547a"/><stop offset="0.65" stop-color="#1e6580"/><stop offset="0.75" stop-color="#2c848e"/><stop offset="0.87" stop-color="#44a39d"/><stop offset="1" stop-color="#74d4c2"/></linearGradient>
<linearGradient id="edge" gradientUnits="userSpaceOnUse" x1="10" y1="150" x2="200" y2="20"><stop offset="0" stop-color="#4f93bd"/><stop offset="0.5" stop-color="#6cbfce"/><stop offset="1" stop-color="#7fd0cc"/></linearGradient>
<linearGradient id="arc1" gradientUnits="userSpaceOnUse" x1="0" y1="30" x2="0" y2="92"><stop offset="0" stop-color="#56a3bc"/><stop offset="1" stop-color="#184a7b"/></linearGradient>
<linearGradient id="arc2" gradientUnits="userSpaceOnUse" x1="0" y1="18" x2="0" y2="104"><stop offset="0" stop-color="#6cc6c0"/><stop offset="0.5" stop-color="#5fa2ad"/><stop offset="1" stop-color="#28607f"/></linearGradient>
<linearGradient id="arc3" gradientUnits="userSpaceOnUse" x1="0" y1="4" x2="0" y2="117"><stop offset="0" stop-color="#8edabf"/><stop offset="0.5" stop-color="#8abdc3"/><stop offset="1" stop-color="#6690bc"/></linearGradient>
<linearGradient id="arc-edge" gradientUnits="userSpaceOnUse" x1="0" y1="4" x2="0" y2="117"><stop offset="0" stop-color="#8ee2d6"/><stop offset="1" stop-color="#62b4d0"/></linearGradient>
<linearGradient id="ramp" gradientUnits="userSpaceOnUse" x1="125" y1="0" x2="175" y2="0"><stop offset="0" stop-color="#000"/><stop offset="0.5" stop-color="#555"/><stop offset="1" stop-color="#fff"/></linearGradient>
<linearGradient id="shine" gradientUnits="userSpaceOnUse" x1="45" y1="147" x2="144" y2="37"><stop offset=".5" stop-color="#a0f0d8" stop-opacity="0"/><stop offset=".72" stop-color="#a0f0d8" stop-opacity=".6"/><stop offset=".95" stop-color="#a0f0d8" stop-opacity=".2"/></linearGradient>
<filter id="haze" x="-30%" y="-30%" width="160%" height="160%">
<feGaussianBlur stdDeviation="8"/>
<feComponentTransfer result="b"><feFuncA type="linear" slope="2.5"/></feComponentTransfer>
<feFlood flood-color="#2f626a"/><feComposite in2="b" operator="in"/>
</filter>
<mask id="ramp-mask"><rect x="-10" y="-10" width="231" height="180" fill="url(#ramp)"/></mask>
<clipPath id="clip-left"><rect x="-10" y="-10" width="71.5" height="180"/></clipPath>
<clipPath id="clip-top"><rect x="61.5" y="-10" width="100" height="98"/></clipPath>
<clipPath id="clip-bottom"><rect x="61.5" y="88" width="100" height="82"/></clipPath>
<mask id="ring-edge"><rect x="-10" y="-10" width="231" height="180" fill="#000"/><circle cx="59" cy="91" r="47.4" fill="none" stroke="#fff" stroke-width="17.799999999999997"/><g fill="#000" stroke="#000" stroke-width="8.4" stroke-linejoin="round"><rect x="50" y="25" width="22.5" height="132"/><rect x="116" y="25" width="22.5" height="132"/><path d="M 45.5 147.8 C 41.8 140.9 42.7 118.6 50.1 106.5 C 57.6 94.4 69.9 86.6 83.5 83.5 C 97.3 80.4 111.2 78.3 123.7 71.5 C 137.9 63.8 144.3 42.5 144.5 37.5 C 149.2 44.1 150.4 65.1 142.6 78.1 C 135.2 90.5 122.4 97.2 108.3 100.4 C 94.3 103.6 80.8 104.5 68.3 112.4 C 54.5 121.1 46 142.9 45.5 147.8 Z"/></g></mask>
<mask id="bars-edge"><rect x="-10" y="-10" width="231" height="180" fill="#000"/><g fill="#fff" stroke="#fff" stroke-width="1"><rect x="50" y="25" width="22.5" height="132"/><rect x="116" y="25" width="22.5" height="132"/></g><path d="M 45.5 147.8 C 41.8 140.9 42.7 118.6 50.1 106.5 C 57.6 94.4 69.9 86.6 83.5 83.5 C 97.3 80.4 111.2 78.3 123.7 71.5 C 137.9 63.8 144.3 42.5 144.5 37.5 C 149.2 44.1 150.4 65.1 142.6 78.1 C 135.2 90.5 122.4 97.2 108.3 100.4 C 94.3 103.6 80.8 104.5 68.3 112.4 C 54.5 121.1 46 142.9 45.5 147.8 Z" fill="#000" stroke="#000" stroke-width="8.4" stroke-linejoin="round"/></mask>
<mask id="ring-fill"><rect x="-10" y="-10" width="231" height="180" fill="#000"/><circle cx="59" cy="91" r="47.4" fill="none" stroke="#fff" stroke-width="15.799999999999997"/><g fill="#000" stroke="#000" stroke-width="10.4" stroke-linejoin="round"><rect x="50" y="25" width="22.5" height="132"/><rect x="116" y="25" width="22.5" height="132"/><path d="M 45.5 147.8 C 41.8 140.9 42.7 118.6 50.1 106.5 C 57.6 94.4 69.9 86.6 83.5 83.5 C 97.3 80.4 111.2 78.3 123.7 71.5 C 137.9 63.8 144.3 42.5 144.5 37.5 C 149.2 44.1 150.4 65.1 142.6 78.1 C 135.2 90.5 122.4 97.2 108.3 100.4 C 94.3 103.6 80.8 104.5 68.3 112.4 C 54.5 121.1 46 142.9 45.5 147.8 Z"/></g></mask>
<mask id="bars-fill"><rect x="-10" y="-10" width="231" height="180" fill="#000"/><g fill="#fff" stroke="#000" stroke-width="1"><rect x="50" y="25" width="22.5" height="132"/><rect x="116" y="25" width="22.5" height="132"/></g><path d="M 45.5 147.8 C 41.8 140.9 42.7 118.6 50.1 106.5 C 57.6 94.4 69.9 86.6 83.5 83.5 C 97.3 80.4 111.2 78.3 123.7 71.5 C 137.9 63.8 144.3 42.5 144.5 37.5 C 149.2 44.1 150.4 65.1 142.6 78.1 C 135.2 90.5 122.4 97.2 108.3 100.4 C 94.3 103.6 80.8 104.5 68.3 112.4 C 54.5 121.1 46 142.9 45.5 147.8 Z" fill="#000" stroke="#000" stroke-width="10.4" stroke-linejoin="round"/></mask>
<mask id="band-fill"><rect x="-10" y="-10" width="231" height="180" fill="#000"/><path d="M 45.5 147.8 C 41.8 140.9 42.7 118.6 50.1 106.5 C 57.6 94.4 69.9 86.6 83.5 83.5 C 97.3 80.4 111.2 78.3 123.7 71.5 C 137.9 63.8 144.3 42.5 144.5 37.5 C 149.2 44.1 150.4 65.1 142.6 78.1 C 135.2 90.5 122.4 97.2 108.3 100.4 C 94.3 103.6 80.8 104.5 68.3 112.4 C 54.5 121.1 46 142.9 45.5 147.8 Z" fill="#fff" stroke="#000" stroke-width="2"/></mask>
</defs>

<rect x="-10" y="-10" width="231" height="180" fill="url(#edge)" mask="url(#ring-edge)"/>
<g mask="url(#ring-fill)" fill="none"><g clip-path="url(#clip-left)"><circle cx="59" cy="91" r="43.0" stroke="url(#o-left-in)" stroke-width="8"/><circle cx="59" cy="91" r="51.4" stroke="url(#o-left-out)" stroke-width="8.799999999999997"/></g><g clip-path="url(#clip-top)"><circle cx="59" cy="91" r="43.0" stroke="url(#o-top-in)" stroke-width="8"/><circle cx="59" cy="91" r="51.4" stroke="url(#o-top-out)" stroke-width="8.799999999999997"/></g><g clip-path="url(#clip-bottom)"><circle cx="59" cy="91" r="47.4" stroke="url(#o-bottom)" stroke-width="16.799999999999997"/></g></g>
<rect x="-10" y="-10" width="231" height="180" fill="url(#edge)" mask="url(#bars-edge)"/>
<g mask="url(#bars-fill)"><rect x="50" y="25" width="11.5" height="81" fill="url(#lbar-l-up)"/><rect x="50" y="106" width="11.5" height="51" fill="url(#lbar-l-lo)"/><rect x="61.5" y="25" width="11.0" height="81" fill="url(#lbar-r-up)"/><rect x="61.5" y="106" width="11.0" height="51" fill="url(#lbar-r-lo)"/><rect x="116" y="25" width="12" height="55" fill="url(#rbar-l-up)"/><rect x="116" y="80" width="12" height="77" fill="url(#rbar-l-lo)"/><rect x="128" y="25" width="10.5" height="55" fill="url(#rbar-r-up)"/><rect x="128" y="80" width="10.5" height="77" fill="url(#rbar-r-lo)"/><polygon points="72.5,76.3 61.5,86.5 61.5,100 72.5,100" fill="#07567f"/><polygon points="116,88 128,88 128,102.3 116,112.1" fill="#11365f"/></g>

<path d="M 45.5 147.8 C 41.8 140.9 42.7 118.6 50.1 106.5 C 57.6 94.4 69.9 86.6 83.5 83.5 C 97.3 80.4 111.2 78.3 123.7 71.5 C 137.9 63.8 144.3 42.5 144.5 37.5 C 149.2 44.1 150.4 65.1 142.6 78.1 C 135.2 90.5 122.4 97.2 108.3 100.4 C 94.3 103.6 80.8 104.5 68.3 112.4 C 54.5 121.1 46 142.9 45.5 147.8 Z" fill="url(#edge)"/>
<g mask="url(#band-fill)">
<path d="M 45.5 147.8 C 41.8 140.9 42.7 118.6 50.1 106.5 C 57.6 94.4 69.9 86.6 83.5 83.5 C 97.3 80.4 111.2 78.3 123.7 71.5 C 137.9 63.8 144.3 42.5 144.5 37.5 C 149.2 44.1 150.4 65.1 142.6 78.1 C 135.2 90.5 122.4 97.2 108.3 100.4 C 94.3 103.6 80.8 104.5 68.3 112.4 C 54.5 121.1 46 142.9 45.5 147.8 Z" fill="url(#lower)"/>
<path d="M 45.5 147.8 C 41.8 140.9 42.7 118.6 50.1 106.5 C 57.6 94.4 69.9 86.6 83.5 83.5 C 97.3 80.4 111.2 78.3 123.7 71.5 C 137.9 63.8 144.3 42.5 144.5 37.5 C 149.6 54.6 140.2 75.3 124.6 84.1 C 108 95.8 86.1 90.1 69.4 101.3 C 53.4 110.3 40.4 128.9 45.5 147.8 Z" fill="url(#upper)"/>
<path d="M 45.5 147.8 C 40.4 128.9 53.4 110.3 69.4 101.3 C 86.1 90.1 108 95.8 124.6 84.1 C 140.2 75.3 149.6 54.6 144.5 37.5" fill="none" stroke="url(#shine)" stroke-width="1.2"/>
</g>
<path d="M 155.69 31.93 A 44.5 44.5 0 0 1 155.69 90.07 Q 153.66 92.27 151.63 90.06 L 150.27 88.58 Q 148.24 86.37 150.24 84.13 A 36.5 36.5 0 0 0 150.24 37.87 Q 148.24 35.63 150.27 33.42 L 151.63 31.94 Q 153.66 29.73 155.69 31.93 Z" fill="url(#arc1)" stroke="url(#arc-edge)" stroke-width="2" paint-order="stroke"/><path d="M 167.92 18.60 A 62.5 62.5 0 0 1 167.92 103.40 Q 165.83 105.56 163.80 103.34 L 162.45 101.87 Q 160.42 99.65 162.49 97.48 A 54.5 54.5 0 0 0 162.49 24.52 Q 160.42 22.35 162.45 20.13 L 163.80 18.66 Q 165.83 16.44 167.92 18.60 Z" fill="url(#arc2)" stroke="url(#arc-edge)" stroke-width="2" paint-order="stroke"/><path d="M 180.11 5.29 A 80.5 80.5 0 0 1 180.11 116.71 Q 178.00 118.83 175.97 116.62 L 174.61 115.15 Q 172.59 112.93 174.69 110.80 A 72.5 72.5 0 0 0 174.69 11.20 Q 172.59 9.07 174.61 6.85 L 175.97 5.38 Q 178.00 3.17 180.11 5.29 Z" fill="url(#arc3)" stroke="url(#arc-edge)" stroke-width="2" paint-order="stroke"/>
</svg>
