<?xml version="1.0" encoding="UTF-8" standalone="no"?>
<!-- Created with Inkscape (http://www.inkscape.org/) -->

<svg viewBox="-4.588 -4.588 467.949 43.584" width="467.95" height="43.58"
   version="1.1"
   id="svg9"
   xml:space="preserve"
  
  
  
   sodipodi:docname="iowastate.pdf"
   inkscape:version="1.1.1 (3bf5ae0d25, 2021-09-20)"
   xmlns:inkscape="http://www.inkscape.org/namespaces/inkscape"
   xmlns:sodipodi="http://sodipodi.sourceforge.net/DTD/sodipodi-0.dtd"
   xmlns="http://www.w3.org/2000/svg"
   xmlns:svg="http://www.w3.org/2000/svg"><defs
     id="defs13"><clipPath
       clipPathUnits="userSpaceOnUse"
       id="clipPath115"><path
         d="M 0,792 H 1224 V 0 H 0 Z"
         id="path113" /></clipPath><clipPath
       clipPathUnits="userSpaceOnUse"
       id="clipPath1137"><path
         d="M 0,792 H 1224 V 0 H 0 Z"
         id="path1135" /></clipPath><clipPath
       clipPathUnits="userSpaceOnUse"
       id="clipPath1195"><path
         d="M 0,792 H 1224 V 0 H 0 Z"
         id="path1193" /></clipPath><clipPath
       clipPathUnits="userSpaceOnUse"
       id="clipPath1359"><path
         d="M 0,792 H 1224 V 0 H 0 Z"
         id="path1357" /></clipPath></defs><sodipodi:namedview
     id="namedview11"
     pagecolor="#ffffff"
     bordercolor="#666666"
     borderopacity="1.0"
     inkscape:pageshadow="2"
     inkscape:pageopacity="0.0"
     inkscape:pagecheckerboard="0"
     showgrid="false"
     inkscape:zoom="1.87755"
     inkscape:cx="529.67963"
     inkscape:cy="307.58168"
     inkscape:window-width="2560"
     inkscape:window-height="1387"
     inkscape:window-x="1912"
     inkscape:window-y="-8"
     inkscape:window-maximized="1"
     inkscape:current-layer="g15" /><g
     id="g15"
     inkscape:groupmode="layer"
     inkscape:label="iowastate"
     transform="matrix(1.3333333,0,0,-1.3333333,-487.00425,743.17745)"><g
       id="g1545"
       transform="translate(595.2925,552.6221)"><path
         d="m 0,0 c 0,0 2.634,-0.067 3.342,-0.067 0.712,0 3.749,0.099 3.749,0.099 V -0.473 C 5.436,-0.709 4.896,-1.148 5.841,-3.41 l 5.439,-13.071 5.268,14.184 c 0.202,0.878 0.303,1.384 -1.318,1.824 V 0 c 0,0 2.533,-0.067 3.478,-0.067 C 19.924,-0.034 21.377,0 21.377,0 v -0.473 c -1.96,0 -2.398,-0.44 -3.377,-2.971 l -7.294,-17.561 h -0.61 c 0,0 -6.719,16.378 -7.294,17.494 C 1.755,-1.352 1.791,-0.709 0,-0.473 Z"
         style="fill:#c8102e;fill-opacity:1;fill-rule:nonzero;stroke:none"
         id="path1547" /></g><g
       id="g1549"
       transform="translate(367.6172,548.8057)"><path
         d="m 0,0 v -8.61 c 0,-7.093 0,-7.093 -2.364,-7.497 v -0.642 c 0,0 2.297,0.168 4.086,0.168 1.791,0 4.052,-0.168 4.052,-0.168 v 0.642 c -2.363,0.404 -2.363,0.404 -2.363,7.497 V 0 c 0,7.091 0,7.091 2.363,7.463 v 0.641 c 0,0 -2.261,-0.1 -4.052,-0.1 -1.789,0 -4.086,0.1 -4.086,0.1 V 7.463 C 0.034,7.091 0,7.091 0,0"
         style="fill:#c8102e;fill-opacity:1;fill-rule:nonzero;stroke:none"
         id="path1551" /></g><g
       id="g1553"
       transform="translate(463.6245,556.3701)"><path
         d="m 0,0 c 0,0 -3.175,1.013 -5.741,1.013 -4.829,0 -8.543,-3.444 -8.543,-7.058 0,-8.138 12.596,-5.876 12.596,-12.189 0,-5.068 -6.753,-6.994 -11.076,-3.546 -0.913,0.707 -1.048,2.159 -1.25,3.072 h -0.777 l 0.27,-4.627 c 0,0 3.343,-1.418 6.789,-1.418 6.044,0.033 9.049,4.084 9.049,7.801 0,8.171 -12.697,5.91 -12.663,12.123 0.033,4.492 5.403,5.64 9.354,3.41 0.979,-0.473 1.418,-2.972 1.418,-2.972 h 0.743 z"
         style="fill:#c8102e;fill-opacity:1;fill-rule:nonzero;stroke:none"
         id="path1555" /></g><g
       id="g1557"
       transform="translate(465.0767,548.8057)"><path
         d="m 0,0 0.338,3.849 c 0,0 6.99,-0.1 8.543,-0.1 1.553,0 8.68,0.1 8.68,0.1 L 17.729,0 h -0.541 c -0.54,2.331 -1.248,2.702 -4.525,2.702 h -2.296 v -15.874 c 0,-2.464 0.067,-2.802 2.296,-3.004 v -0.573 c 0,0 -2.229,0.101 -3.782,0.101 -1.553,0 -3.815,-0.101 -3.815,-0.101 v 0.573 c 2.262,0.202 2.33,0.575 2.33,3.004 V 2.702 H 5.066 C 1.79,2.702 1.114,2.331 0.506,0 Z"
         style="fill:#c8102e;fill-opacity:1;fill-rule:nonzero;stroke:none"
         id="path1559" /></g><g
       id="g1561"
       transform="translate(517.3853,552.7568)"><path
         d="m 0,0 c 0,0 4.256,-0.068 6.281,-0.068 2.094,0 5.844,0.068 6.383,0.068 0.034,-0.676 0.338,-2.735 0.405,-3.344 l -0.472,-0.135 c -0.743,1.925 -1.452,2.77 -7.936,2.297 v -8.172 c 6.011,-0.034 6.821,-0.169 6.99,2.059 h 0.54 c -0.134,-1.992 -0.202,-3.208 -0.134,-5.165 h -0.541 c -0.1,2.127 -0.877,1.991 -6.855,1.991 v -8.813 c 5.706,-0.372 8.105,-0.17 8.982,2.633 l 0.575,-0.204 c -0.27,-1.01 -1.012,-3.782 -1.012,-3.782 0,0 -7.126,0.103 -8.377,0.103 C 2.804,-20.532 0,-20.635 0,-20.635 v 0.542 c 1.656,0.237 1.892,0.27 1.959,2.938 V -3.579 C 1.926,-0.812 1.318,-0.743 0,-0.541 Z"
         style="fill:#c8102e;fill-opacity:1;fill-rule:nonzero;stroke:none"
         id="path1563" /></g><g
       id="g1565"
       transform="translate(540.6528,557.0127)"><path
         d="M 0,0 C 0,0 2.432,-0.103 4.155,-0.103 5.876,-0.103 8.274,0 8.274,0 V -0.643 C 7.16,-0.979 5.81,-0.744 5.81,-4.831 v -10.567 c 0,-4.222 1.013,-5.168 1.013,-5.168 0,0 1.518,-2.939 5.739,-2.939 3.815,0 5.369,2.903 5.369,2.903 0,0 0.879,0.845 0.946,4.966 v 10.773 c -0.067,3.782 -0.404,3.747 -3.072,4.22 V 0 c 0,0 1.485,-0.103 3.884,-0.103 1.822,0 3.343,0.103 3.343,0.103 v -0.643 c -1.554,-0.336 -2.5,-0.539 -2.467,-4.086 v -11.852 c 0.037,-4.122 -2.092,-5.944 -2.092,-5.944 0,0 -2.33,-2.769 -7.329,-2.769 -5.268,0 -7.53,3.476 -7.53,3.476 0,0 -1.35,1.386 -1.35,6.384 v 10.571 c 0,3.782 -0.509,3.95 -2.264,4.22 z"
         style="fill:#c8102e;fill-opacity:1;fill-rule:nonzero;stroke:none"
         id="path1567" /></g><g
       id="g1569"
       transform="translate(564.2246,552.6543)"><path
         d="M 0,0 C 0,0 1.216,-0.066 2.566,-0.066 3.951,-0.066 4.525,0 4.525,0 l 14.08,-15.973 v 12.496 c 0,2.364 -0.471,2.736 -2.463,2.972 V 0 c 0,0 1.689,-0.1 3.039,-0.1 1.384,0 2.904,0.1 2.904,0.1 v -0.505 c -1.622,-0.541 -2.061,-0.641 -2.061,-2.937 v -17.494 l -1.045,0.1 -14.656,16.65 v -12.767 c 0,-1.923 0.27,-2.734 2.328,-3.071 v -0.508 c 0,0 -1.653,0.102 -3.072,0.102 -1.282,0 -2.936,-0.102 -2.936,-0.102 v 0.508 c 1.991,0.337 2.329,1.148 2.329,3.071 v 13.476 c 0,2.229 -1.521,2.6 -2.972,2.972 z"
         style="fill:#c8102e;fill-opacity:1;fill-rule:nonzero;stroke:none"
         id="path1571" /></g><g
       id="g1573"
       transform="translate(691.4697,552.6221)"><path
         d="M 0,0 C 0,0 1.857,-0.067 3.275,-0.067 4.692,-0.067 6.686,0 6.686,0 V -0.541 C 5.401,-0.913 4.659,-0.979 5.538,-2.397 l 4.355,-7.091 4.121,7.056 c 0.507,1.047 0.776,1.655 -1.25,1.959 V 0 c 0,0 1.384,-0.067 2.701,-0.067 1.183,0 2.399,0.067 2.399,0.067 v -0.473 c -1.317,-0.304 -1.351,-0.641 -2.229,-1.924 l -5.303,-8.207 0.066,-6.35 c 0,-2.768 0.71,-2.667 2.366,-3.038 V -20.5 c 0,0 -2.128,0.103 -3.681,0.103 -1.554,0 -3.749,-0.103 -3.749,-0.103 v 0.508 c 1.893,0.371 2.129,0.234 2.195,3.004 l 0.034,6.384 -5.234,8.139 C 1.08,-0.845 1.181,-0.811 0,-0.541 Z"
         style="fill:#c8102e;fill-opacity:1;fill-rule:nonzero;stroke:none"
         id="path1575" /></g><g
       id="g1577"
       transform="translate(404.291,552.7568)"><path
         d="M 0,0 C 0,0 1.925,-0.033 3.58,-0.033 5.201,-0.033 7.159,0 7.159,0 V -0.541 C 5.64,-0.709 5.032,-1.283 5.403,-2.466 l 5.876,-14.15 5.066,14.15 c 0.372,1.452 0.034,1.757 -2.026,1.925 V 0 c 0,0 1.553,-0.033 2.836,-0.033 1.317,0 3.039,0.033 3.039,0.033 V -0.541 C 18.742,-0.709 18.472,-1.283 17.999,-2.432 L 10.874,-21.004 H 10.131 L 5.235,-9.253 0.304,-21.004 H 0.27 -0.27 L -7.8,-2.432 c -0.541,1.216 -0.71,1.418 -2.432,1.891 0,0.608 -0.034,0.541 -0.034,0.541 0,0 1.891,-0.033 3.513,-0.033 1.655,0 3.647,0.033 3.647,0.033 v -0.541 c -1.655,-0.168 -2.127,-0.742 -1.723,-1.958 l 5.64,-14.117 3.748,8.951 -2.094,5.199 C 1.756,-1.014 1.655,-0.912 0,-0.541 Z"
         style="fill:#c8102e;fill-opacity:1;fill-rule:nonzero;stroke:none"
         id="path1579" /></g><g
       id="g1581"
       transform="translate(498.2388,548.8057)"><path
         d="m 0,0 0.338,3.849 c 0,0 6.99,-0.1 8.544,-0.1 1.552,0 8.678,0.1 8.678,0.1 L 17.729,0 h -0.54 c -0.541,2.331 -1.25,2.702 -4.526,2.702 h -2.295 v -15.874 c 0,-2.464 0.066,-2.802 2.295,-3.004 v -0.573 c 0,0 -2.229,0.101 -3.781,0.101 -1.554,0 -3.817,-0.101 -3.817,-0.101 v 0.573 c 2.263,0.202 2.331,0.575 2.331,3.004 V 2.702 H 5.065 C 1.79,2.702 1.114,2.331 0.507,0 Z"
         style="fill:#c8102e;fill-opacity:1;fill-rule:nonzero;stroke:none"
         id="path1583" /></g><g
       id="g1585"
       transform="translate(667.6611,545.9687)"><path
         d="m 0,0 v -7.123 c 0,-5.879 0.034,-5.879 -1.926,-6.216 v -0.54 c 0,0 1.926,0.135 3.377,0.135 1.487,0 3.378,-0.135 3.378,-0.135 v 0.54 c -1.96,0.337 -1.96,0.337 -1.96,6.216 V 0 c 0,5.843 0,5.843 1.96,6.146 v 0.54 c 0,0 -1.891,-0.067 -3.378,-0.067 -1.451,0 -3.377,0.067 -3.377,0.067 V 6.146 C 0.068,5.843 0,5.843 0,0"
         style="fill:#c8102e;fill-opacity:1;fill-rule:nonzero;stroke:none"
         id="path1587" /></g><g
       id="g1589"
       transform="translate(590.4985,545.9687)"><path
         d="m 0,0 v -7.123 c 0,-5.879 0.034,-5.879 -1.925,-6.216 v -0.54 c 0,0 1.925,0.135 3.376,0.135 1.486,0 3.377,-0.135 3.377,-0.135 v 0.54 c -1.959,0.337 -1.959,0.337 -1.959,6.216 V 0 c 0,5.843 0,5.843 1.959,6.146 v 0.54 c 0,0 -1.891,-0.067 -3.377,-0.067 -1.451,0 -3.376,0.067 -3.376,0.067 V 6.146 C 0.066,5.843 0,5.843 0,0"
         style="fill:#c8102e;fill-opacity:1;fill-rule:nonzero;stroke:none"
         id="path1591" /></g><g
       id="g1593"
       transform="translate(616.6357,552.6543)"><path
         d="m 0,0 c 0,0 4.256,-0.066 6.28,-0.066 2.095,0 5.841,0.066 6.383,0.066 0.033,-0.675 0.338,-2.733 0.404,-3.342 l -0.472,-0.135 c -0.743,1.925 -1.451,2.768 -7.934,2.296 v -8.172 c 6.01,-0.033 6.82,-0.168 6.99,2.06 h 0.538 c -0.135,-1.992 -0.202,-3.208 -0.135,-5.166 h -0.539 c -0.101,2.127 -0.879,1.992 -6.854,1.992 v -8.814 c 5.704,-0.372 8.103,-0.168 8.981,2.634 l 0.574,-0.204 c -0.27,-1.011 -1.013,-3.781 -1.013,-3.781 0,0 -7.125,0.1 -8.374,0.1 -2.025,0 -4.829,-0.1 -4.829,-0.1 v 0.54 c 1.653,0.236 1.892,0.27 1.958,2.938 V -3.578 C 1.924,-0.81 1.554,-0.606 0,-0.539 Z"
         style="fill:#c8102e;fill-opacity:1;fill-rule:nonzero;stroke:none"
         id="path1595" /></g><g
       id="g1597"
       transform="translate(673.3682,548.8057)"><path
         d="m 0,0 0.338,3.849 c 0,0 6.991,-0.1 8.544,-0.1 1.552,0 8.68,0.1 8.68,0.1 L 17.729,0 h -0.54 c -0.54,2.331 -1.25,2.702 -4.525,2.702 h -2.298 v -15.874 c 0,-2.464 0.068,-2.802 2.298,-3.004 v -0.573 c 0,0 -2.23,0.101 -3.782,0.101 -1.553,0 -3.815,-0.101 -3.815,-0.101 v 0.573 c 2.262,0.202 2.329,0.575 2.329,3.004 V 2.702 H 5.067 C 1.79,2.702 1.114,2.331 0.507,0 Z"
         style="fill:#c8102e;fill-opacity:1;fill-rule:nonzero;stroke:none"
         id="path1599" /></g><g
       id="g1601"
       transform="translate(662.3252,552.1816)"><path
         d="m 0,0 c 0,0 -2.6,0.812 -4.695,0.812 -3.984,0 -7.056,-2.836 -7.056,-5.81 0,-6.686 10.366,-4.827 10.366,-10.029 0,-4.154 -5.537,-5.743 -9.117,-2.905 -0.742,0.576 -0.843,1.79 -1.013,2.535 h -0.641 l 0.236,-3.818 c 0,0 2.734,-1.181 5.571,-1.181 4.964,0.033 7.464,3.375 7.464,6.452 0,6.718 -10.469,4.862 -10.434,9.961 0.033,3.68 4.455,4.626 7.7,2.801 0.809,-0.37 1.146,-2.43 1.146,-2.43 H 0.17 Z"
         style="fill:#c8102e;fill-opacity:1;fill-rule:nonzero;stroke:none"
         id="path1603" /></g><g
       id="g1605"
       transform="translate(392.4385,542.4238)"><path
         d="m 0,0 c 0,6.652 -3.58,9.59 -7.463,9.59 -3.918,0 -7.497,-2.938 -7.497,-9.59 0,-6.723 3.579,-9.626 7.497,-9.626 C -3.58,-9.626 0,-6.723 0,0 m -18.271,0 c 0,6.011 4.932,10.604 10.808,10.604 C -1.655,10.604 3.343,6.011 3.343,0 3.309,-6.08 -1.655,-10.639 -7.463,-10.639 c -5.876,0 -10.808,4.559 -10.808,10.639"
         style="fill:#c8102e;fill-opacity:1;fill-rule:nonzero;stroke:none"
         id="path1607" /></g><g
       id="g1609"
       transform="translate(432.4556,542.0869)"><path
         d="M 0,0 -2.702,7.598 -5.707,0 Z m -6.146,10.67 c 0,0 1.317,-0.033 2.6,-0.033 1.317,0 2.465,0.033 2.465,0.033 L 5.91,-7.6 c 0.641,-1.486 1.486,-1.722 2.465,-1.891 v -0.539 c 0,0 -1.926,0.1 -3.547,0.1 -1.62,0 -3.612,-0.1 -3.612,-0.1 v 0.539 c 1.283,0.202 2.127,0.236 1.485,1.891 L 0.507,-1.521 H -6.281 L -8.679,-7.6 c -0.642,-1.655 0.675,-1.722 1.756,-1.891 v -0.539 c 0,0 -1.419,0.1 -2.736,0.1 -1.283,0 -2.768,-0.1 -2.768,-0.1 0,0 -0.034,-0.137 -0.034,0.506 1.148,0.438 1.317,0.438 1.958,1.924 l 6.754,15.804 c 0.54,1.486 -0.844,1.588 -2.397,1.959 z"
         style="fill:#c8102e;fill-opacity:1;fill-rule:nonzero;stroke:none"
         id="path1611" /></g><g
       id="g1613"
       transform="translate(492.5654,541.9844)"><path
         d="M 0,0 -2.702,7.598 -5.708,0 Z m -6.146,10.67 c 0,0 1.317,-0.032 2.6,-0.032 1.317,0 2.465,0.032 2.465,0.032 L 5.91,-7.599 c 0.642,-1.485 1.485,-1.721 2.465,-1.89 v -0.54 c 0,0 -1.925,0.101 -3.546,0.101 -1.621,0 -3.614,-0.101 -3.614,-0.101 v 0.54 c 1.284,0.203 2.128,0.235 1.486,1.89 l -2.195,6.078 h -6.787 l -2.398,-6.078 c -0.642,-1.655 0.676,-1.721 1.756,-1.89 v -0.54 c 0,0 -1.419,0.101 -2.736,0.101 -1.282,0 -2.769,-0.101 -2.769,-0.101 0,0 -0.033,-0.137 -0.033,0.505 1.148,0.44 1.317,0.44 1.958,1.925 l 6.754,15.805 c 0.541,1.485 -0.844,1.587 -2.397,1.959 z"
         style="fill:#c8102e;fill-opacity:1;fill-rule:nonzero;stroke:none"
         id="path1615" /></g><g
       id="g1617"
       transform="translate(636.7285,542.8613)"><path
         d="M 0,0 V 8.309 C 2.162,9.187 6.518,8.95 6.618,4.356 6.721,-0.302 1.892,-0.472 0,0 m 9.524,-6.518 c -0.846,1.352 -3.108,4.899 -4.561,6.081 1.285,0.572 4.729,1.012 4.729,4.862 0,4.019 -4.018,5.368 -7.463,5.402 -1.487,0 -3.514,-0.236 -4.491,-0.236 -0.812,0 -2.6,0.068 -2.6,0.068 V 9.187 C -3.513,9.018 -2.903,8.545 -2.903,6.316 V -7.16 c 0,-2.564 -0.54,-3.037 -1.959,-3.206 v -0.473 c 0,0 2.227,0.068 3.342,0.068 1.892,-0.034 3.479,-0.034 3.479,-0.034 v 0.439 C 0.439,-10.063 0.135,-9.997 0,-7.16 v 6.182 c 2.263,0.204 3.748,-1.52 5.368,-4.017 1.082,-1.657 2.499,-4.256 3.885,-5.81 0.473,0 1.688,0.034 2.296,0.034 0.675,0 1.926,-0.068 1.926,-0.068 v 0.473 c -1.858,0.269 -1.826,0.471 -3.951,3.848"
         style="fill:#c8102e;fill-opacity:1;fill-rule:nonzero;stroke:none"
         id="path1619" /></g></g></svg>
