<svg viewBox="-2.79 -2.937 299.58 69.819" width="299.58" height="69.82" fill="none" xmlns="http://www.w3.org/2000/svg">
<g clip-path="url(#clip0_8697_14197)">
<path d="M54.216 14.4633L52.4004 17.3817L52.7383 17.6953L55.8195 16.1465C56.1243 15.9865 56.3364 15.6985 56.3761 15.3657L56.5816 13.8105L55.1238 13.8809C54.7395 13.9001 54.3883 14.1241 54.216 14.4633Z" fill="#161616"/>
<path d="M54.3213 11.6293C54.6526 11.2965 54.7388 10.8101 54.54 10.3941L54.1623 9.29333L52.7774 9.97813C52.4129 10.1381 52.1678 10.4645 52.1148 10.8421L51.3594 14.1829L51.8497 14.4133L54.3147 11.6293H54.3213Z" fill="#161616"/>
<path d="M68.6014 28.3137L66.693 27.1553C66.2159 26.8673 65.6394 26.7905 65.1027 26.9505L62.3926 27.7633V28.2497L65.825 29.3889C66.4545 29.6001 67.1701 29.4721 67.6803 29.0561L68.5947 28.3137H68.6014Z" fill="#161616"/>
<path d="M45.9466 22.861C45.7412 23.085 45.6418 23.3858 45.6683 23.6802L45.8406 25.8818L46.3309 25.9138L47.782 24.1218C48.067 23.7698 48.1067 23.2962 47.8881 22.9058L47.3381 21.549L45.9532 22.861H45.9466Z" fill="#161616"/>
<path d="M44.947 17.1262C44.788 17.395 44.7615 17.7086 44.8808 17.9966L45.888 20.6654L46.3717 20.6526L47.2993 18.0542C47.412 17.7342 47.3656 17.5038 47.0939 17.075L46.0669 15.5646L44.947 17.1198V17.1262Z" fill="#161616"/>
<path d="M45.3894 12.4544C45.7472 12.2816 45.9393 11.7312 46.0122 11.3728L46.3767 9.54236L44.7665 9.63196C44.349 9.65756 43.9647 9.86236 43.7328 10.176L41.9238 13.1968L42.3678 13.7152L45.396 12.448L45.3894 12.4544Z" fill="#161616"/>
<path d="M58.6626 11.7061C59.0778 11.544 59.3606 11.2496 59.5108 10.8229L60.1005 9.30613L58.1656 9.29333C57.7813 9.29333 57.4169 9.47253 57.2048 9.77973L55.4688 12.3397L55.8862 12.7621L58.6692 11.7061H58.6626Z" fill="#161616"/>
<path d="M66.9594 14.1633C66.5154 14.1953 66.1245 14.4705 65.9654 14.8737L64.4414 17.7985L64.839 18.1569L68.0395 16.4737C68.4437 16.2945 68.7087 15.9041 68.7153 15.4753L68.5431 14.1633H66.9528H66.9594Z" fill="#161616"/>
<path d="M68.8931 20.8192L69.3239 19.1936L67.548 18.656C67.2034 18.5536 66.8324 18.6304 66.5475 18.8608L63.5723 21.3376L63.7512 21.824L67.886 21.6384C68.3564 21.6192 68.7739 21.28 68.8931 20.8128V20.8192Z" fill="#161616"/>
<path d="M59.246 14.3749L63.8247 11.6293C64.1494 11.3989 64.3283 11.0277 64.2952 10.6373L64.1826 9.29333L62.1417 9.81173C61.7971 9.90133 61.5718 10.1509 61.3664 10.4645L58.8418 14.0677L59.246 14.3749Z" fill="#161616"/>
<path d="M50.5322 12.3647C50.7508 12.0575 50.7906 11.6735 50.6514 11.3279L49.5714 9.28625L47.9943 10.3807C47.7558 10.5535 47.7028 11.1231 47.6762 11.4623V11.5391L47.3516 15.1743L48.0341 15.4111L50.5322 12.3711V12.3647Z" fill="#161616"/>
<path d="M27.2004 13.7664L25.4842 12.9344L25.4047 14.8288C25.3716 15.232 25.524 15.6608 26.0342 16.1344L27.9956 18.0608L28.4992 17.7408L27.7637 14.4896C27.6775 14.1632 27.5914 13.9264 27.2004 13.76V13.7664Z" fill="#161616"/>
<path d="M44.0511 15.8785L43.8722 14.3937L41.9969 15.1169C41.4867 15.2577 41.3873 15.8273 41.1157 16.3905L40.0488 18.6113L40.5127 18.9185L43.4481 17.5873C43.9583 17.2609 44.1704 17.0113 44.0511 15.8785Z" fill="#161616"/>
<path d="M35.3311 16.7608L35.7883 16.684L35.9539 14.7896C36.0136 14.3352 35.7684 13.8872 35.3443 13.6696L34.3239 13.1512L33.8998 14.2392C33.8203 14.5144 33.8534 14.8024 33.9926 15.0584L35.3377 16.7672L35.3311 16.7608Z" fill="#161616"/>
<path d="M25.7899 11.4501L28.7717 13.2165L29.2223 12.8709L28.3609 10.4069C28.2284 10.0293 27.8904 9.74773 27.4862 9.67093L25.4785 9.29333L25.2664 10.2725C25.167 10.7333 25.3791 11.2069 25.7965 11.4501H25.7899Z" fill="#161616"/>
<path d="M29.9963 15.6414L32.1035 17.5166L32.4746 17.1646L31.9047 14.6046C31.8318 14.2654 31.5734 13.9902 31.2222 13.8814L29.8439 13.4718L29.5921 14.6878C29.5192 15.0526 29.6717 15.4238 29.9963 15.635V15.6414Z" fill="#161616"/>
<path d="M36.537 13.4085L37.0141 13.2997L37.3918 10.7845C37.3984 10.4837 37.2328 10.1957 36.9412 10.0165L35.7618 9.29333L34.854 10.4901C34.6287 10.7845 34.622 11.1749 34.8473 11.4757L36.5437 13.4085H36.537Z" fill="#161616"/>
<path d="M41.4859 11.6421C41.7974 11.5205 41.9895 11.2581 42.0028 10.9509L41.9034 9.29333L40.0149 9.39573C39.73 9.45973 39.5047 9.64533 39.4119 9.89493L38.418 12.5317L38.8951 12.9285L41.4793 11.6357L41.4859 11.6421Z" fill="#161616"/>
<path d="M39.36 20.6714C39.2142 20.761 39.0684 20.8698 38.969 20.9594L37.8359 22.0154L37.9155 22.3994L39.7774 22.489C40.1883 22.4762 40.4467 22.2074 40.6786 21.8618L41.2153 20.7162L39.9961 20.5434C39.7708 20.5114 39.5455 20.5562 39.3533 20.6714H39.36Z" fill="#161616"/>
<path d="M37.0155 17.6251L39.5798 16.3323C40.0039 16.1467 40.2424 15.7371 40.1828 15.2955L39.984 13.7531L38.2612 14.3931C37.963 14.5019 37.7377 14.7259 37.645 15.0011L36.5781 17.2859L37.0088 17.6315L37.0155 17.6251Z" fill="#161616"/>
<path d="M30.348 11.1487L32.6937 13.2095L33.2172 13.0111L32.9455 10.4447C32.8991 10.0287 32.5479 9.68305 32.0576 9.58065L30.9974 9.28625L30.1426 10.0287C29.9173 10.3999 29.9968 10.8479 30.3414 11.1487H30.348Z" fill="#161616"/>
<path d="M56.8406 16.6147L55.2305 19.5011L55.6214 19.8019L58.5105 18.2787C58.8153 18.0867 59.0074 17.7731 59.0273 17.4403L59.14 15.7571L57.7087 16.0131C57.3376 16.0771 57.0129 16.3075 56.8473 16.6147H56.8406Z" fill="#161616"/>
<path d="M63.9769 15.1936L62.0023 15.6032C61.7041 15.6288 61.4125 15.8784 61.1276 16.3584L59.4512 19.1616L59.8156 19.552L62.8902 18.272C63.4203 18.0544 63.7516 17.5168 63.7847 16.8448L63.9769 15.2V15.1936Z" fill="#161616"/>
<path d="M58.0793 24.5825L61.6111 23.0401C61.9888 22.8737 62.2472 22.5281 62.287 22.1313L62.4129 20.8705L60.4382 20.9793C60.0738 20.9985 59.7358 21.1905 59.5304 21.4849L57.7148 24.1729L58.0793 24.5825Z" fill="#161616"/>
<path d="M65.1828 25.5229L66.402 24.1789L64.2352 23.3149C63.831 23.1549 63.3606 23.2125 63.0293 23.4621L60.127 25.6445L60.3191 26.0797L64.3545 25.9005C64.6792 25.8877 64.9774 25.7469 65.1828 25.5229Z" fill="#161616"/>
<path d="M58.0128 27.7504C57.7942 27.8336 57.6086 27.9808 57.4761 28.1728L56.0117 30.7008L56.3563 31.1104L59.9013 29.76C60.3784 29.5744 60.67 29.12 60.6302 28.6272L60.4911 27.0272L58.0195 27.744L58.0128 27.7504Z" fill="#161616"/>
<path d="M64.2685 13.7535L68.2178 11.9743C68.6087 11.8015 68.8539 11.3919 68.8539 10.9311L68.8406 9.28625L66.8395 9.49745C66.5944 9.57425 66.3757 9.74705 66.2432 9.99665L63.9902 13.3887L64.2818 13.7535H64.2685Z" fill="#161616"/>
<path d="M72.1069 12.8069C72.849 12.5125 73.5249 12.1925 73.5912 11.5141C73.6442 11.0021 73.6773 9.54293 73.6839 9.29333L71.7358 9.53653C71.2322 9.54933 70.8015 9.86293 70.6491 10.3237L69.3438 13.3637L69.7678 13.7413L72.1069 12.8133V12.8069Z" fill="#161616"/>
<path d="M66.1437 37.5933C65.8721 37.3437 65.4811 37.2349 65.0968 37.3053L61.5186 37.9709L61.459 38.4637L65.2028 40.0061C65.5673 40.1597 65.9847 40.1277 66.3226 39.9229L67.7539 39.0525L66.1504 37.5997L66.1437 37.5933Z" fill="#161616"/>
<path d="M51.5266 17.6258L51.5928 15.629L49.8766 16.141C49.4989 16.2498 49.214 16.5314 49.108 16.8898L48.1074 20.3586L48.4785 20.6082L51.0627 18.6306C51.394 18.4002 51.5266 18.2338 51.5332 17.6194L51.5266 17.6258Z" fill="#161616"/>
<path d="M52.7248 22.2267C53.1025 22.0283 53.3411 21.6507 53.3345 21.2347L53.4537 19.8331L51.7574 20.0443C51.2803 20.0699 50.8761 20.3707 50.7237 20.8123L49.7695 23.1995L50.1804 23.5323L52.7182 22.2203L52.7248 22.2267Z" fill="#161616"/>
<path d="M64.0028 36.3523C64.4799 36.4931 64.9968 36.3395 65.295 35.9683L66.3088 34.7011L64.301 33.8051C64.0227 33.6835 63.698 33.6643 63.4065 33.7667L60.4512 34.7651V35.2835L64.0028 36.3523Z" fill="#161616"/>
<path d="M64.6141 43.6799L66.3236 43.4559L65.7935 42.2207C65.5285 41.5999 64.9653 41.1519 64.2827 41.0175L60.7311 40.3135L60.4727 40.7807L62.8515 43.1039C63.3087 43.5519 63.9713 43.7695 64.6141 43.6863V43.6799Z" fill="#161616"/>
<path d="M64.1359 47.9102L66.5346 47.6926L66.349 46.2206C66.2894 45.7534 65.925 45.3758 65.4412 45.2798L60.9685 44.371L60.6836 44.8254L63.1486 47.5326C63.3937 47.8014 63.7582 47.9422 64.1359 47.9102Z" fill="#161616"/>
<path d="M52.8914 23.9553L53.0968 24.2945L56.1714 23.7761C56.5822 23.7057 56.9268 23.4241 57.0659 23.0529L57.881 20.9089L56.1184 20.8641C55.7539 20.8577 55.4094 21.0049 55.1774 21.2801L52.8848 23.9553H52.8914Z" fill="#161616"/>
<path d="M63.3342 32.3131L64.5137 30.4635L62.2475 30.1755C61.9427 30.1371 61.6313 30.2075 61.3861 30.3739L58.4043 32.0315L58.5434 32.5051L62.2078 32.8379C62.6583 32.8763 63.1023 32.6715 63.3342 32.3131Z" fill="#161616"/>
<path d="M55.5822 27.5969C56.0129 27.6353 56.2449 27.4625 56.6623 27.0849L57.8617 25.8369L55.834 25.1905C55.0588 24.9857 54.7341 25.0881 54.3431 25.3569L52.2559 26.7969L52.4016 27.3153L55.5889 27.5969H55.5822Z" fill="#161616"/>
<path d="M58.2527 39.6038C58.6768 39.687 59.1207 39.5462 59.3725 39.2326L60.3333 38.0678L59.0611 37.4726C58.7828 37.3446 58.4581 37.319 58.1665 37.415L55.3438 38.4134L55.3835 38.8678L58.2527 39.6038Z" fill="#161616"/>
<path d="M53.0834 32.4803L52.4473 35.0723L52.825 35.3859L54.8393 33.6003C55.2899 33.0755 55.5152 32.9283 55.4688 32.4547L55.3363 31.1427C55.3363 31.1427 54.2629 31.4947 53.8984 31.6419C53.5075 31.8019 53.249 31.8595 53.0834 32.4739V32.4803Z" fill="#161616"/>
<path d="M57.7757 35.9872C58.3058 35.8656 58.657 35.3856 58.5973 34.8672L58.4582 33.6704L56.7022 33.9008C56.4703 33.9328 56.245 34.0352 56.0794 34.1952L53.7734 36.6464L54.0385 37.088L57.7757 35.9872Z" fill="#161616"/>
<path d="M70.9131 24.8123L67.7656 25.9707V26.4955L71.251 27.7755C71.7016 27.9419 72.2185 27.8139 72.5365 27.4619L73.6895 26.1819L72.0263 24.9659C71.7082 24.7291 71.2908 24.6715 70.9131 24.8123Z" fill="#161616"/>
<path d="M51.6315 38.5408L50.1406 39.9168L50.3725 40.4352L52.6453 40.3136C53.1489 40.288 53.6923 39.9616 53.8513 39.5008L54.335 38.3296L52.4333 38.2208C52.1351 38.2336 51.8436 38.3488 51.6315 38.5472V38.5408Z" fill="#161616"/>
<path d="M58.1791 43.0716L59.9483 42.406L58.8682 41.2476C58.6231 40.9852 58.2321 40.8316 57.8279 40.838L54.6539 40.902L54.4883 41.3308L56.8804 42.9244C57.2514 43.1676 57.7616 43.2252 58.1791 43.0716Z" fill="#161616"/>
<path d="M51.8231 41.5173L49.1394 41.4789L48.9473 41.8117L51.0147 43.2581C51.3327 43.5013 51.77 43.6037 52.1875 43.5269L53.8441 43.2389L52.9296 42.0357C52.6845 41.7157 52.2736 41.5237 51.8231 41.5109V41.5173Z" fill="#161616"/>
<path d="M10.616 52.4281C10.4238 52.5625 10.2781 52.7481 10.1919 52.9657L9.5293 54.7129L12.849 53.9449C13.2466 53.8553 13.5713 53.5737 13.7038 53.1961L14.7905 50.1625L14.161 49.9385L10.616 52.4281Z" fill="#161616"/>
<path d="M59.372 45.6258C59.2527 45.2418 58.9214 44.9538 58.5172 44.8642L54.8462 44.0706L54.5547 44.525L56.9799 47.4306C57.2582 47.7634 57.6955 47.9106 58.1262 47.821L59.9485 47.437L59.372 45.6258Z" fill="#161616"/>
<path d="M51.6723 36.6015V35.6927L50.4266 35.7951C49.9031 35.8527 49.5718 35.9551 49.4459 36.6399L48.9556 38.8991L47.5243 40.4031L41.8588 40.3775C41.2625 40.3775 40.9378 39.6927 41.3354 39.2575L44.1118 36.1919L43.6347 35.7951L35.8621 43.9487L35.385 43.5391L36.5115 42.2783C36.6241 42.1567 36.6904 41.9583 36.6175 41.8175L35.8621 40.2047L39.4071 32.2495C39.6987 31.5903 40.3679 31.1615 41.1101 31.1615H43.5751L44.7479 29.9455C45.7882 28.9471 46.2322 28.7103 47.299 28.7167H49.2405L50.8838 29.9327C51.235 30.1887 51.5663 30.1567 52.0964 30.0351L53.5476 29.5679L52.3813 28.5183C51.8314 28.0511 51.6524 28.1343 51.2416 28.1343L48.7038 28.1215H46.4906L47.5906 26.9567L49.6116 26.7199C50.0158 26.6623 50.2477 26.4063 50.5061 26.0287L51.3874 24.5759H49.7971C49.3001 24.5503 49.0152 24.6207 48.7435 24.8959L45.2714 28.5631C44.9666 28.8703 44.3702 28.9599 43.9262 28.9535L39.3011 28.9343L37.8964 30.3743L37.4325 29.9903L38.5524 28.7359C38.7578 28.5247 38.8505 28.2303 38.7909 27.9487L38.3734 23.9935C38.3734 23.9935 36.9422 23.1999 36.8958 22.3807C36.803 21.7471 37.0614 21.1071 37.5849 20.7039L38.2873 20.1663C38.7379 19.8783 38.8903 19.6543 38.9367 18.8479L39.0228 17.6063L37.1078 18.3935C36.8362 18.5215 36.5247 18.9375 36.5181 19.2319L36.4982 20.7743L35.8753 21.8239L35.1133 20.9663V20.2559L35.4778 18.8223C35.5838 18.3743 35.2856 17.9839 34.9676 17.7407L33.6291 16.7999L33.0526 18.0607C32.9598 18.3999 33.0261 18.7775 33.2381 19.0591L34.3646 20.3135L34.3381 26.6495L31.0912 24.7871C30.6207 24.5055 30.2762 24.0767 30.2033 23.5455V22.3295L30.2165 20.3711C30.2165 19.6479 30.2497 19.5903 29.8057 19.1871L29.0304 18.5983L28.3744 19.7055C28.2022 19.9999 28.1094 20.3519 28.3015 20.6719L29.5473 22.3551L29.2624 23.6095L26.2938 20.9727C26.042 20.7295 25.6643 20.6399 25.3131 20.7423L23.8686 21.3119L24.4517 22.2399C24.73 22.6815 24.889 22.7071 25.333 22.8159L27.6456 23.0655L32.158 28.8127C32.761 29.5167 32.9068 30.3615 32.5026 31.1295L31.3761 33.3631L31.0183 34.0159L24.0806 29.8559C23.5704 29.5487 23.4578 29.4719 22.9277 29.4975L21.7349 29.5999L22.2054 30.7775C22.4042 31.1935 22.8415 31.6287 23.3186 31.6223L25.598 31.6351L27.2745 32.6079V32.8831L24.7764 32.8767H22.5963C22.1325 32.8767 21.7151 33.1391 21.5295 33.5487L20.7344 35.2767L22.212 35.3279C22.5102 35.3407 22.8018 35.2383 23.0271 35.0463L24.8029 33.5295L25.6444 33.5167C26.2408 33.5167 26.539 33.4655 26.8371 33.9263L28.3943 36.0703C28.9907 36.9215 29.1232 37.2991 28.9244 37.8431L28.0166 39.7695L26.3601 42.9567L26.2209 51.6479L24.0011 53.9711V54.7071H41.5938L42.3028 53.9903L39.7053 48.4415L41.395 43.1807C41.5872 42.5983 42.1504 42.2015 42.7799 42.2079L46.802 42.2207L51.1621 37.6319C51.6524 37.1007 51.6723 37.0303 51.6591 36.6015H51.6723Z" fill="#161616"/>
<path d="M18.6206 35.8019L15.5725 37.3315C15.2213 37.5107 14.996 37.8563 14.9894 38.2403L14.9629 39.9875L17.302 39.2387C17.5869 39.1491 17.8254 38.9379 17.9447 38.6755L19.1043 36.1411L18.614 35.8019H18.6206Z" fill="#161616"/>
<path d="M17.0096 41.3502L16.3735 41.4014L14.8097 45.4142C14.6705 45.7662 14.7103 46.163 14.929 46.4766L15.7042 48.211L17.4072 45.9902C17.7451 45.6638 17.8511 45.1774 17.6789 44.7485L17.003 41.3438L17.0096 41.3502Z" fill="#161616"/>
<path d="M20.6821 37.0563L18.5617 39.8019C18.2967 40.0963 18.2039 40.5059 18.3166 40.8835L18.7075 42.1955L20.7418 40.9603C21.093 40.7491 21.305 40.3715 21.305 39.9683L21.2454 37.1011L20.6821 37.0499V37.0563Z" fill="#161616"/>
<path d="M59.3321 48.8835L58.8418 49.1139L59.2526 52.6915C59.2924 53.0115 59.4779 53.2867 59.7761 53.4467L62.1019 54.7011L62.526 52.4035C62.5856 52.0707 62.473 51.7379 62.2212 51.5075L59.3321 48.8771V48.8835Z" fill="#161616"/>
<path d="M71.6109 33.3377L66.9328 33.2289L66.7539 33.7345L70.4845 36.0769C70.9019 36.3777 71.4784 36.3777 71.8892 36.0705L73.685 34.9633L72.4194 33.6833C72.2073 33.4657 71.9224 33.3441 71.6109 33.3377Z" fill="#161616"/>
<path d="M71.0524 20.5056L68.2031 23.328L68.4417 23.84L72.6361 23.3792C73.2258 23.3152 73.6764 22.8096 73.6764 22.2144V20.4864L72.0795 20.192C71.7084 20.1216 71.3241 20.2432 71.0524 20.512V20.5056Z" fill="#161616"/>
<path d="M70.2579 29.4719C70.2182 29.4911 70.1784 29.5103 70.132 29.5231L66.5273 31.0655L66.6069 31.5775L71.1591 32.0639C71.2519 32.0767 71.3314 32.0831 71.4109 32.0959C71.8946 32.1663 72.1597 32.2047 72.9283 31.4239L73.6837 30.7135L72.2988 29.7983C71.1326 29.0879 70.894 29.1903 70.2579 29.4655V29.4719Z" fill="#161616"/>
<path d="M71.2997 15.2512L68.8281 17.3248L68.9872 17.824L71.0413 18.0672C71.1473 18.0672 71.26 18.08 71.3726 18.0928C72.0153 18.144 72.678 18.1952 73.0623 17.7792C73.1551 17.6832 73.2213 17.5552 73.2677 17.3952L73.6785 15.808L72.5918 15.1808C72.181 14.944 71.6708 14.976 71.2931 15.2576L71.2997 15.2512Z" fill="#161616"/>
<path d="M73.1798 51.6097L68.7932 48.9153L68.3691 49.2289L69.9064 53.3633C70.0191 53.7217 70.3239 53.9969 70.7016 54.0865L73.6834 54.7137L73.6966 52.3841C73.6569 52.0641 73.4713 51.7825 73.1864 51.6097H73.1798Z" fill="#161616"/>
<path d="M67.3223 51.9744L63.4592 48.9344L63.002 49.2673L64.5724 53.7344C64.7314 54.0928 65.0826 54.3488 65.4802 54.4L67.8656 54.7073L67.7463 52.7744C67.7265 52.4608 67.5741 52.1728 67.3223 51.9744Z" fill="#161616"/>
<path d="M72.3577 46.1115L67.9513 44.7803L67.6465 45.2347L70.7741 48.6587C71.0192 48.9275 71.3903 49.0683 71.768 49.0299L73.6896 48.8315L73.133 46.8859C73.027 46.5211 72.7421 46.2331 72.3644 46.1179L72.3577 46.1115Z" fill="#161616"/>
<path d="M71.7228 37.2863L68.2308 37.3055L68.0254 37.7983L70.8813 40.0895C71.1132 40.2751 71.4048 40.3647 71.703 40.3391L73.6842 39.8591L72.4782 37.6511C72.2861 37.4463 72.0144 37.3183 71.7228 37.2927V37.2863Z" fill="#161616"/>
<path d="M72.9236 42.8544C72.7381 42.3552 72.6718 42.1824 72.3007 42.0288L67.4901 41.12L67.2383 41.5936L70.3857 44.32C70.5514 44.4736 70.7634 44.576 70.9954 44.6144L73.6922 44.8064L73.0097 43.0592C72.9832 42.9824 72.9567 42.912 72.9302 42.848L72.9236 42.8544Z" fill="#161616"/>
<path d="M16.8915 12.1602L20.5094 13.9522L20.8606 13.5618L18.7667 9.92664C18.5281 9.57464 18.3293 9.55544 17.7396 9.49144C17.6667 9.48504 17.5872 9.47224 17.5011 9.46584L15.6523 9.29944L16.3481 11.6482C16.4607 11.8722 16.6595 12.0578 16.8981 12.1666L16.8915 12.1602Z" fill="#161616"/>
<path d="M19.3421 18.3041L17.5 18.9313L18.7987 20.5121C19.0373 20.8001 19.4084 20.9601 19.7861 20.9345L22.7281 20.7297L22.8805 20.2177L20.4089 18.4577C20.0975 18.2401 19.6999 18.1825 19.3355 18.3041H19.3421Z" fill="#161616"/>
<path d="M9.5293 48.9982L9.63532 50.8542L12.4051 49.5102C12.7231 49.3566 12.9551 49.0686 13.0346 48.7358L13.684 45.9966L13.1406 45.619L9.98651 48.0318C9.6817 48.2686 9.50942 48.627 9.53592 49.0046L9.5293 48.9982Z" fill="#161616"/>
<path d="M22.5624 26.7712L19.8722 25.1008C19.5541 24.928 19.1698 24.9344 18.8517 25.12L17.1289 26.112L18.6264 27.2768C18.8451 27.4496 19.1168 27.5264 19.3951 27.488L22.516 27.2128L22.5624 26.7648V26.7712Z" fill="#161616"/>
<path d="M23.019 22.8357L19.7323 21.6901C19.348 21.5301 19.1293 21.6069 18.5661 21.8245L17.3535 22.3749L18.3806 23.5077C18.6258 23.8597 19.0697 24.0453 19.507 23.9877L22.9461 23.3669L23.019 22.8293V22.8357Z" fill="#161616"/>
<path d="M25.0223 27.366L23.5977 27.3788L23.9886 28.4924C24.0747 28.742 24.2205 28.8508 24.5121 29.0492L26.5993 30.3164L26.8511 30.0284L25.9036 27.878C25.7313 27.5644 25.3934 27.366 25.0289 27.366H25.0223Z" fill="#161616"/>
<path d="M21.3243 11.9173L23.5176 14.2021L23.9681 13.9333L23.4314 10.2149C23.3188 9.69653 22.8483 9.31893 22.3116 9.31253L20.9863 9.29333L20.9996 11.1429C20.9996 11.4309 21.1189 11.7061 21.3243 11.9237V11.9173Z" fill="#161616"/>
<path d="M16.3209 32.7611L15.1348 34.4123L17.0299 35.0203C17.4341 35.1483 17.878 35.0651 18.2027 34.7899L20.7538 32.6267L20.5352 32.0187L17.2088 32.2619C16.851 32.2875 16.5197 32.4731 16.3142 32.7547L16.3209 32.7611Z" fill="#161616"/>
<path d="M27.1938 24.2115L25.0138 23.8339C24.5433 23.7507 24.0728 23.9555 23.821 24.3459L23.0723 25.5235L24.6493 25.9267C24.9607 26.0035 25.2921 25.9523 25.5637 25.7859L27.3992 24.6595L27.1872 24.2115H27.1938Z" fill="#161616"/>
<path d="M20.9856 28.7104L17.8977 28.3648C17.5267 28.32 17.149 28.4672 16.9038 28.7424L15.5918 30.2016L17.5068 31.0272C17.8712 31.1808 18.2887 31.1424 18.6134 30.9248L20.9723 29.3504L20.9856 28.704V28.7104Z" fill="#161616"/>
<path d="M17.7385 14.2983L16.0488 14.7143L16.3536 15.8727C16.4597 16.2823 16.8042 16.6151 17.2283 16.7175L20.9788 17.4791L21.2173 17.0439L18.8517 14.6247C18.5602 14.3239 18.1295 14.2023 17.7319 14.2983H17.7385Z" fill="#161616"/>
<path d="M11.9408 35.2449L14.7702 31.9105L14.313 31.5393L11.1126 32.3073C10.7547 32.3969 10.4632 32.6529 10.3505 32.9985L9.51562 35.2641L10.821 35.5841C11.2252 35.6929 11.6625 35.5585 11.9276 35.2449H11.9408Z" fill="#161616"/>
<path d="M12.6039 39.5586L14.0086 36.4866L13.5183 36.0514L10.2979 37.8114C9.94012 38.0098 9.70821 38.3682 9.68833 38.765L9.5293 40.7938L11.822 40.2114C12.1732 40.1218 12.4581 39.8786 12.6039 39.5586Z" fill="#161616"/>
<path d="M12.49 30.6689L15.8562 27.5393L15.505 26.9889L11.5756 27.7313C11.2708 27.7889 10.9991 27.9617 10.8202 28.2113L9.52148 30.0225L11.0787 30.8481C11.5359 31.0913 12.1123 31.0209 12.49 30.6689Z" fill="#161616"/>
<path d="M12.3455 44.7422L14.3532 41.3822L13.8629 40.9406L10.5299 42.2781C10.1389 42.4317 9.86724 42.7774 9.80097 43.1806L9.5293 44.9725L11.0533 45.2925C11.5636 45.4013 12.087 45.1774 12.3521 44.7422H12.3455Z" fill="#161616"/>
<path d="M10.9606 12.5757L15.0821 13.3437L15.314 12.8829L12.3786 9.61886C12.0274 9.27326 11.4708 9.19006 11.0335 9.42686L9.5293 10.2269L10.0263 11.8013C10.1588 12.2173 10.5232 12.5181 10.9606 12.5757Z" fill="#161616"/>
<path d="M22.5488 15.6412L22.7741 17.7084C22.8205 18.1436 23.1319 18.5148 23.556 18.6492L26.518 19.9036L26.8426 19.494L24.3909 16.1276C24.1656 15.8012 23.7946 15.6092 23.3904 15.6156L22.5488 15.6348V15.6412Z" fill="#161616"/>
<path d="M11.6154 17.9971L15.9953 18.0867L16.1742 17.5875L12.8214 15.1171C12.437 14.8355 11.9136 14.8227 11.5094 15.0851L9.52148 16.3779L10.8401 17.6707C11.0455 17.8691 11.3172 17.9843 11.6088 17.9907L11.6154 17.9971Z" fill="#161616"/>
<path d="M13.1472 22.4703L16.838 21.0751V20.5631L12.5376 19.1167C12.1533 18.9887 11.716 19.0655 11.4045 19.3215L9.5293 20.8575L12.1202 22.3871C12.425 22.5663 12.8093 22.6047 13.1472 22.4767V22.4703Z" fill="#161616"/>
<path d="M12.5961 26.1244L15.9224 24.4092L15.8628 23.7628L11.5889 23.4364C11.1582 23.4044 10.7407 23.5964 10.4955 23.942L9.52148 25.3308L11.5557 26.1692C11.8871 26.3036 12.2714 26.2908 12.5894 26.1244H12.5961Z" fill="#161616"/>
<path d="M83.2124 64H0V0H83.2124V64ZM0.940927 63.0912H82.2715V0.9088H0.940927V63.0912Z" fill="#161616"/>
<path d="M252.574 21.0944H252.958V10.2528H251.5V17.9392L243.96 10.1184H243.615V20.96H245.04V13.2736L252.58 21.0944H252.574ZM238.712 21.0944H239.096V10.2528H237.638V17.9392L230.064 10.1184H229.72V20.96H231.144V13.2736L238.718 21.0944H238.712ZM237.737 37.7728H243.542V36.5632H239.202V32.672H243.264V31.4624H239.202V28.2432H243.542V27.0336H237.737V37.7728ZM220.542 16.6336L222.212 12.8448L223.842 16.6336H220.542ZM216.997 20.96H218.455L219.986 17.8048H224.432L225.923 20.96H227.414L222.411 10.1184H222.027L216.991 20.96H216.997ZM251.427 53.9136H257.232V52.704H252.892V48.8128H256.954V47.6032H252.892V44.416H257.232V43.2064H251.427V53.9136ZM230.164 37.7728H231.621V28.2432H235.027V27.0336H226.791V28.2432H230.164V37.7728ZM202.791 20.96H204.215V13.2736L208.628 17.7728L213.041 13.2736V20.96H214.466V10.1248H214.155L208.628 15.8272L203.102 10.1248H202.791V20.9664V20.96ZM243.608 54.1824C245.099 54.1824 246.424 53.7152 247.359 52.8768V51.3024L247.253 51.2704C246.557 52.2432 245.344 52.9792 243.602 52.9792C241.137 52.9792 239.261 51.0016 239.261 48.448C239.261 45.8944 241.137 44.0512 243.602 44.0512C245.165 44.0512 246.484 44.7552 247.253 45.728L247.359 45.696V44.1536C246.418 43.3152 245.172 42.88 243.608 42.88C240.342 42.88 237.804 45.2928 237.804 48.448C237.804 51.6032 240.342 54.1888 243.608 54.1888V54.1824ZM219.257 37.9072C221.689 37.9072 224.087 36.6656 224.087 33.1392V27.0336H222.63V33.5744C222.63 35.6224 221 36.6976 219.257 36.6976C217.514 36.6976 215.884 35.6224 215.884 33.5744V27.0336H214.426V33.1392C214.426 36.6656 216.825 37.9072 219.257 37.9072ZM233.848 54.048H234.192V43.2064H232.768V50.8928L225.194 43.1104H224.849V53.9136H226.274V46.2272L233.848 54.048ZM190.91 20.96H199.179V19.7504H193.375L199.769 10.2528H191.639V11.4624H197.37L190.91 20.96ZM206.925 37.7728H208.35V28.2432H211.756V27.0336H203.52V28.2432H206.925V37.7728ZM186.563 20.96H187.988V10.2528H186.563V20.96ZM214.499 53.9136H220.304V52.704H215.924V48.8128H220.025V47.6032H215.924V44.416H220.304V43.2064H214.499V53.9136ZM198.722 37.7728H200.147V27.0336H198.722V37.7728ZM176.909 20.96H182.673V19.7504H178.293V15.8912H182.355V14.6496H178.293V11.4624H182.673V10.2528H176.909V20.96ZM208.489 53.9136H209.914V43.2064H208.489V53.9136ZM190.453 37.7728H191.877V28.2432H195.316V27.0336H187.047V28.2432H190.453V37.7728ZM163.08 21.0944H163.464L165.757 16.9664L168.082 21.0944H168.427L174.994 10.2528H173.291L168.221 18.8096L166.485 15.6544L169.54 10.2528H167.943L165.757 14.2784L163.603 10.2528H161.973L165.028 15.6544L163.292 18.8096L158.222 10.2528H156.52L163.086 21.0944H163.08ZM200.637 54.1824C202.128 54.1824 203.486 53.7152 204.421 52.8768V51.3024L204.282 51.2704C203.619 52.2432 202.373 52.9792 200.63 52.9792C198.199 52.9792 196.29 51.0016 196.29 48.448C196.29 45.8944 198.199 44.0512 200.63 44.0512C202.194 44.0512 203.546 44.7552 204.282 45.728L204.421 45.696V44.1536C203.48 43.3152 202.194 42.88 200.637 42.88C197.37 42.88 194.872 45.2928 194.872 48.448C194.872 51.6032 197.37 54.1888 200.637 54.1888V54.1824ZM181.143 37.9392C183.051 37.9392 184.794 36.896 184.794 34.8864C184.794 33.1072 183.893 32.1664 181.494 31.232C180.275 30.7264 179.758 29.9904 179.758 29.2864C179.758 28.5824 180.348 27.9424 181.249 27.9424C181.872 27.9424 182.6 28.2112 183.157 29.184L184.376 28.512C183.574 27.2384 182.501 26.7328 181.388 26.7328C179.619 26.7328 178.26 27.6416 178.26 29.3824C178.26 30.4576 178.989 31.5328 181.037 32.4032C182.879 33.2096 183.296 33.8112 183.296 34.8864C183.296 35.9616 182.428 36.7296 181.176 36.7296C180.308 36.7296 179.267 36.192 178.605 34.8864L177.458 35.456C178.048 37.0688 179.546 37.9392 181.143 37.9392ZM188.617 54.112C190.525 54.112 192.228 53.0688 192.228 51.0912C192.228 49.28 191.36 48.3392 188.962 47.3984C187.742 46.9312 187.192 46.1888 187.192 45.4528C187.192 44.7168 187.815 44.1792 188.723 44.1792C189.346 44.1792 190.075 44.416 190.631 45.3568L191.851 44.6848C191.049 43.4432 189.975 42.9376 188.862 42.9376C187.093 42.9376 185.768 43.8464 185.768 45.5552C185.768 46.6624 186.464 47.7376 188.511 48.608C190.353 49.3824 190.804 49.984 190.804 51.0912C190.804 52.1984 189.936 52.9024 188.65 52.9024C187.782 52.9024 186.775 52.3648 186.079 51.0912L184.933 51.6608C185.523 53.2352 187.02 54.112 188.617 54.112ZM173.609 37.9072H173.953V27.0336H172.529V34.72L164.955 26.8992H164.61V37.7728H166.035V30.0864L173.609 37.9072ZM158.633 37.7728H160.058V27.0336H158.633V37.7728ZM172.774 53.9136H174.198V48.8128H178.088V47.6032H174.198V44.416H178.539V43.2064H172.774V53.9136ZM163.842 52.9728C161.271 52.9728 159.223 50.9952 159.223 48.4416C159.223 45.888 161.271 44.0448 163.842 44.0448C166.413 44.0448 168.361 45.9904 168.361 48.4416C168.361 50.8928 166.379 52.9728 163.842 52.9728ZM163.842 54.1824C167.214 54.1824 169.852 51.7312 169.852 48.4416C169.852 45.152 167.214 42.8736 163.842 42.8736C160.469 42.8736 157.798 45.2864 157.798 48.4416C157.798 51.5968 160.403 54.1824 163.842 54.1824Z" fill="#161616"/>
<path d="M294 64H146.533V0H294V64ZM147.474 63.0912H293.059V0.9088H147.474V63.0912Z" fill="#161616"/>
<path d="M94.2996 30.656L94.008 38.8672L96.3537 40.7808H96.7182L95.1809 30.912C95.1411 30.6304 95.2207 30.24 95.6182 29.7792L97.341 27.8656L94.1141 25.248H93.4514L92.1328 26.7008L94.8827 28.9664C95.2472 29.248 95.2869 29.6064 94.9556 29.9584L94.293 30.6688L94.2996 30.656ZM120.864 22.2016H135.442L137.052 19.4432V12.2944C137.052 11.1296 136.065 10.2784 134.634 10.2784H129.836L128.405 11.8336C127.928 12.3648 127.086 12.3264 126.576 11.904L123.68 9.53599H123.018L121.699 10.9888L125.291 13.888C125.768 14.2784 125.728 14.7712 125.291 15.2704L124.336 16.3328L124.774 16.6848L128.107 12.9728C128.438 12.5824 128.988 12.3008 129.79 12.3008H133.527C134.408 12.3008 134.846 12.6208 134.991 13.3632L135.906 18.3168C136.018 18.88 135.946 19.3088 135.72 19.552C135.243 20.1536 134.143 20.192 132.897 20.192H121.653L120.844 21.7856V22.208L120.864 22.2016ZM134.269 38.2976H134.706L136.761 37.376L135.369 30.8992C135.296 30.6176 135.442 30.2592 135.879 29.8048L137.602 27.8912L134.342 25.2352H133.679L132.361 26.688L135.144 28.9536C135.508 29.2352 135.508 29.5936 135.217 29.9456L134.594 30.656L134.263 38.2976H134.269ZM127.636 31.8912L131.334 27.8208L128.219 25.2352H127.557L126.198 26.7584L128.544 28.6336C128.981 28.9856 128.981 29.5552 128.544 30.048L127.186 31.5328L127.623 31.8848L127.636 31.8912ZM104.159 22.2016H118.519L119.91 19.4432V11.8016C119.91 10.88 119.069 10.2784 117.969 10.2784H108.076C107.711 10.2784 107.38 10.0672 107.088 9.81759L106.757 9.53599H106.134L104.815 10.9888L106.499 12.3008H116.902C117.525 12.3008 117.783 12.512 117.856 13.0112L118.697 18.2848C118.77 18.816 118.658 19.2064 118.439 19.488C117.962 20.0512 116.902 20.1984 115.729 20.1984H104.994L104.153 21.8624V22.2144L104.159 22.2016ZM112.84 38.048H123.574L124.416 36.384C124.635 35.9616 124.489 35.5712 124.012 35.2192L121.633 33.4528C121.196 33.1328 121.05 32.4608 121.414 32.0384L125.224 27.8272L122.037 25.2416H121.374L120.056 26.7264L122.474 28.672C122.912 29.024 122.912 29.5936 122.474 30.0864L120.314 32.4928L117.637 30.5088C117.273 30.2272 117.306 29.7984 117.525 29.5552L119.062 27.8592L115.835 25.2416H115.172L113.854 26.6944L116.604 28.8896C116.968 29.2096 116.935 29.6 116.643 29.952L116.02 30.7328L121.514 35.616C121.699 35.7568 121.659 36.0768 121.255 36.0768H113.635L112.827 37.6704V38.0608L112.84 38.048ZM100.382 22.5856H100.82L102.874 21.664L101.482 15.1872C101.41 14.7968 101.701 14.4064 101.993 14.0928L103.716 12.1792L100.455 9.52319H99.7928L98.4741 10.976L101.257 13.2416C101.622 13.5616 101.661 13.8816 101.33 14.2336L100.707 14.944L100.376 22.5856H100.382ZM96.3537 24.8512H96.7579L95.2206 15.1936C95.1809 14.912 95.2604 14.5536 95.658 14.0992L97.3808 12.1856L94.1207 9.52959H93.4581L92.1394 10.9824L94.9225 13.248C95.2869 13.5296 95.3267 13.888 94.9954 14.24L94.3327 14.9504L94.0412 22.944L96.3471 24.8576L96.3537 24.8512ZM97.6326 38.048H110.494L111.886 35.3216V28C111.886 26.8672 110.898 25.9136 109.467 25.9136H106.79L105.286 27.5776C104.809 28.0704 104.04 28.1088 103.49 27.648L100.561 25.2416H99.7199L98.4741 26.624L102.066 29.5616C102.543 29.952 102.616 30.4832 102.178 30.976L101.224 32.0384L101.661 32.3904L104.994 28.64C105.286 28.288 105.876 27.9296 106.717 27.9296H108.659C109.467 27.9296 109.759 28.352 109.904 29.1328L110.786 34.1568C110.898 34.688 110.786 35.0784 110.64 35.3216C110.163 35.9936 109.063 36.064 108.115 36.064H98.441L97.6326 37.6576V38.048ZM111.667 53.9392H125.151L126.543 51.2128V43.8912C126.543 42.7584 125.556 41.8048 124.124 41.8048H121.818L120.314 43.4688C119.837 43.9616 119.069 44 118.519 43.5392L115.623 41.1712H114.96L113.642 42.624L117.087 45.4208C117.564 45.8112 117.637 46.3744 117.2 46.8736L116.246 47.936L116.683 48.288L119.983 44.608C120.274 44.256 120.897 43.8976 121.739 43.8976H123.243C124.012 43.8976 124.416 44.1792 124.522 44.8512L125.436 50.0544C125.549 50.6176 125.436 51.008 125.218 51.2896C124.707 51.8528 123.641 51.9296 122.395 51.9296H112.469L111.66 53.5232V53.9456L111.667 53.9392ZM107.638 54.2528H108.115L110.169 53.3312L108.924 47.6352C108.705 46.6432 108.884 46.112 109.984 45.1584C110.461 44.6976 111.011 44.2752 112.071 43.5328V42.7904C112.071 42.08 111.78 41.7984 111.044 41.7984H101.96C101.482 41.7984 101.224 41.6576 100.86 41.408L100.528 41.1584H99.9054L98.5868 42.6112L100.164 43.8848H108.957C109.507 43.8848 109.798 44.1664 109.798 44.448C109.798 44.6272 109.726 44.768 109.58 44.9088L107.897 46.5344L107.638 54.2464V54.2528ZM92.3979 54.4704C96.0953 53.5488 99.4283 52.2048 101.555 49.4464C101.92 48.6336 102.251 47.4304 102.51 45.8368L102.145 45.5168C101.668 46.9312 100.422 48.736 99.3952 49.2672C99.0639 49.4464 98.6597 49.4784 98.3681 49.1584L96.0622 46.752C95.8038 46.5024 95.6977 46.3296 95.6977 46.112C95.6977 45.8944 95.8104 45.6896 96.029 45.44L97.4206 43.8848L94.1207 41.1584H93.4581L92.1394 42.6112L94.9225 44.8768C95.2869 45.1584 95.3267 45.5168 94.9954 45.8688L94.3327 46.5792L96.97 50.6496C96.0887 51.1424 94.4785 51.712 93.2725 51.9232L92.1394 54.1888L92.3979 54.4704ZM127.53 54.2208C132.182 53.088 135.734 51.0336 137.052 48.5568V42.9312C137.052 42.3296 136.39 41.7984 135.548 41.7984H130.929C129.975 41.7984 129.651 41.6192 129.571 41.1584L129.24 39.4944C129.167 39.2128 129.313 38.8544 129.75 38.4L131.473 36.4864L128.617 34.1504H127.994L126.636 35.6352L129.015 37.5488C129.2 37.6896 129.306 37.9008 129.306 38.08C129.306 38.2208 129.233 38.4 129.087 38.5408L128.465 39.2512V43.3536C128.829 43.744 129.2 43.8848 129.896 43.8848H134.475C134.879 43.8848 135.137 44.064 135.21 44.416L135.833 47.5648C135.946 48.096 135.793 48.3456 135.541 48.5888C134.037 50.0032 131.513 50.8544 128.398 51.7056L127.265 53.9712L127.524 54.2208H127.53Z" fill="#161616"/>
<path d="M147.474 64H82.2715V0H147.474V64ZM83.2124 63.0912H146.533V0.9088H83.2124V63.0912Z" fill="#161616"/>
</g>
<defs>
<clipPath id="clip0_8697_14197">
<rect width="294" height="64" fill="white"/>
</clipPath>
</defs>
</svg>
